<?xml version="1.0" standalone="no"?>
<!DOCTYPE svg PUBLIC "-//W3C//DTD SVG 20010904//EN"
 "http://www.w3.org/TR/2001/REC-SVG-20010904/DTD/svg10.dtd">
<svg version="1.0" xmlns="http://www.w3.org/2000/svg"
 width="512.000000pt" height="512.000000pt" viewBox="0 0 512.000000 512.000000"
 preserveAspectRatio="xMidYMid meet">
<metadata>
Created by potrace 1.16, written by Peter Selinger 2001-2019
</metadata>
<g transform="translate(0.000000,512.000000) scale(0.100000,-0.100000)"
stroke="none">
<path d="M0 2560 l0 -2560 2560 0 2560 0 0 2560 0 2560 -2560 0 -2560 0 0
-2560z m1557 2115 c23 -14 43 -30 43 -35 0 -6 28 -10 63 -10 227 0 567 -178
859 -449 l48 -43 78 73 c167 157 408 322 567 388 242 101 444 99 602 -6 102
-68 169 -170 219 -339 22 -76 27 -114 31 -260 5 -165 5 -172 -16 -193 -25 -25
-48 -27 -77 -7 -19 14 -21 28 -27 163 -7 177 -26 271 -78 379 -70 149 -168
209 -334 209 -149 -1 -311 -63 -507 -194 -95 -63 -297 -229 -342 -279 -18 -20
-18 -22 2 -49 11 -15 44 -51 74 -80 47 -46 65 -56 162 -88 193 -63 348 -162
491 -317 l70 -75 155 -38 c181 -44 370 -108 525 -176 l110 -49 47 20 c62 27
108 25 168 -5 75 -38 105 -89 106 -181 1 -70 3 -74 42 -121 81 -94 132 -223
132 -333 0 -70 -25 -162 -63 -234 -41 -76 -164 -207 -256 -271 -40 -28 -107
-84 -149 -125 -129 -126 -240 -171 -422 -171 -140 -1 -220 21 -335 91 l-30 18
-81 -45 c-45 -25 -148 -94 -230 -154 -168 -123 -312 -200 -429 -230 -85 -23
-316 -32 -402 -16 -27 4 -43 4 -43 -3 0 -16 300 -311 390 -383 174 -139 345
-240 490 -287 61 -21 95 -25 185 -25 97 0 116 3 160 25 103 51 179 157 220
310 14 49 19 114 22 265 3 189 4 201 24 218 27 22 51 22 80 -2 24 -19 24 -21
23 -218 0 -169 -4 -210 -22 -283 -34 -130 -91 -241 -161 -311 -239 -239 -633
-164 -1101 209 -121 96 -360 335 -475 475 -69 83 -102 115 -145 138 -136 72
-328 248 -449 409 -55 74 -81 102 -81 88 0 -2 -13 -58 -29 -124 -38 -150 -58
-270 -70 -404 -10 -114 -12 -109 48 -142 40 -22 80 -84 87 -138 9 -65 -10
-121 -55 -167 l-40 -39 33 -63 c61 -119 152 -188 265 -200 138 -15 289 26 473
129 105 59 114 62 136 49 93 -53 28 -126 -205 -229 -378 -167 -680 -78 -808
237 -20 48 -29 58 -60 69 -80 27 -143 124 -132 203 7 58 37 111 77 140 l37 26
12 130 c14 139 49 343 81 465 10 41 18 76 16 78 -2 1 -46 7 -97 13 -52 5 -132
19 -179 30 -79 20 -219 69 -247 87 -9 6 -8 41 7 154 10 81 23 236 30 345 11
209 24 314 46 375 l13 38 -87 -44 c-193 -98 -334 -222 -398 -352 -35 -70 -39
-86 -39 -155 0 -67 5 -85 37 -150 60 -122 160 -210 413 -366 40 -25 48 -83 13
-107 -31 -22 -45 -20 -113 16 -222 116 -399 292 -455 452 -111 314 125 635
621 847 88 38 105 49 132 88 17 25 46 62 64 82 l34 38 -16 103 c-53 351 -13
672 105 838 16 23 20 38 15 61 -15 68 39 168 110 204 49 24 141 20 192 -10z" fill="white"/>
<path d="M1650 4480 c0 -28 -33 -90 -62 -116 -58 -53 -143 -69 -213 -40 -34
15 -35 14 -50 -14 -21 -41 -51 -127 -66 -190 -24 -97 -15 -520 10 -520 5 0 39
21 77 46 134 90 272 151 543 240 141 47 170 59 208 95 63 58 114 79 197 79 51
0 82 -6 114 -21 38 -19 46 -20 58 -7 13 13 6 22 -53 74 -221 196 -437 326
-617 373 -105 28 -146 28 -146 1z" fill="white" />
<path d="M2243 3854 c-7 -3 -22 -21 -34 -40 -27 -45 -58 -59 -269 -129 -96
-31 -212 -73 -257 -92 l-82 -35 -20 -86 c-35 -152 -52 -253 -66 -402 -25 -247
-23 -265 36 -399 80 -179 158 -331 175 -338 22 -8 180 31 434 107 442 133 607
155 1036 133 105 -5 129 -9 99 -14 -22 -5 -68 -8 -103 -8 -96 -1 -345 -29
-457 -52 -138 -28 -294 -81 -532 -182 -111 -48 -242 -100 -292 -118 -50 -17
-91 -36 -91 -42 0 -33 224 -362 264 -386 141 -88 288 -131 442 -131 217 0 321
42 584 236 288 213 524 304 788 304 122 0 175 -14 219 -58 l36 -35 18 24 c14
18 15 27 6 35 -18 17 -433 267 -552 333 l-106 59 -3 128 c-5 198 -59 412 -144
578 -37 73 -64 108 -142 185 -162 162 -282 220 -625 297 l-170 38 -47 48 c-43
43 -52 48 -90 47 -24 0 -48 -3 -55 -5z" fill="white" />
<path d="M1367 3401 l-52 -50 23 -90 c13 -50 38 -134 55 -187 l33 -95 -1 235
c0 130 -1 236 -3 236 -2 0 -27 -22 -55 -49z" fill="white"/>
<path d="M3602 3238 c58 -138 96 -296 125 -521 l8 -59 240 -145 c318 -192 372
-228 406 -275 l28 -40 79 79 c55 55 88 99 113 148 31 64 34 77 34 160 0 82 -3
96 -33 152 -17 34 -46 78 -62 97 l-31 35 -37 -16 c-77 -32 -182 1 -232 73 -26
39 -43 105 -34 137 5 21 -4 28 -93 69 -54 26 -138 60 -188 78 -82 29 -328 100
-346 100 -4 0 7 -33 23 -72z" fill="white" />
<path d="M1160 3138 c-58 -118 -69 -171 -80 -368 -10 -187 -18 -301 -26 -338
-4 -19 2 -26 38 -42 119 -52 392 -104 461 -86 l26 6 -84 173 c-45 94 -105 228
-133 297 -53 132 -142 393 -142 416 0 38 -23 15 -60 -58z" fill="white"/>
</g>
</svg>
